<svg width="31" height="32" viewBox="0 0 31 32" fill="none" xmlns="http://www.w3.org/2000/svg">
<path d="M14.52 31.68H16.2C16.48 29.92 17.28 28.04 18.56 26C21.08 21.96 26.24 18.04 30.76 17.12V15.44C28.52 14.96 26.36 13.96 24.28 12.48C20.08 9.48 16.88 5.04 16.2 0.96H14.52C14.12 3.12 13.2 5.2 11.76 7.24C8.88 11.32 4.48 14.44 0.0400001 15.44V17.12C2.24 17.56 4.52 18.68 6.84 20.44C11.48 23.96 13.96 28.24 14.52 31.68ZM15.08 30.72C14.76 26.88 13.52 22.28 12.04 19.68C9.32 18.16 4.64 16.92 1 16.64V16.08C4.68 15.8 9.48 14.44 12.04 12.96C13.56 10.28 14.76 5.76 15.08 2H15.64C16.04 6.16 17.28 10.56 18.68 12.96C21.16 14.44 26.2 15.8 29.72 16.08V16.64C26.2 16.88 21.36 18.16 18.68 19.68C17.28 22.04 16.04 26.56 15.64 30.72H15.08Z" fill="#BA3B46"/>
</svg>
