<svg width="168" height="161" viewBox="0 0 168 161" fill="none" xmlns="http://www.w3.org/2000/svg">
<path d="M67.832 11.7598C72.921 -3.90244 95.079 -3.90243 100.168 11.7599L108.248 36.6262C110.523 43.6306 117.051 48.3729 124.415 48.3729H150.561C167.03 48.3729 173.877 69.4463 160.554 79.1262L139.401 94.4944C133.443 98.8233 130.95 106.497 133.226 113.501L141.305 138.367C146.394 154.03 128.468 167.054 115.145 157.374L93.9923 142.006C88.0341 137.677 79.9659 137.677 74.0077 142.006L52.8551 157.374C39.5319 167.054 21.6058 154.03 26.6948 138.367L34.7744 113.501C37.0502 106.497 34.557 98.8233 28.5987 94.4944L7.44619 79.1261C-5.87694 69.4463 0.970252 48.3729 17.4386 48.3729H43.5845C50.9494 48.3729 57.4766 43.6306 59.7525 36.6262L67.832 11.7598Z" fill="#7A918D"/>
</svg>
